<mxfile host="app.diagrams.net" modified="2024-01-29T04:00:44.820Z" agent="Mozilla/5.0 (Windows NT 10.0; Win64; x64) AppleWebKit/537.36 (KHTML, like Gecko) Chrome/120.0.0.0 Safari/537.36 Edg/120.0.0.0" version="23.0.2" etag="Oipf-bmUddJO6RvgjsJM" type="github">
  <diagram name="페이지-1" id="Zlm_pIqZvl6BFTRAhopZ">
    <mxGraphModel>
      <root>
        <mxCell id="0" />
        <mxCell id="1" parent="0" />
      </root>
    </mxGraphModel>
  </diagram>
</mxfile>
